<?xml version="1.0" standalone="no"?>
<!DOCTYPE svg PUBLIC "-//W3C//DTD SVG 20010904//EN"
 "http://www.w3.org/TR/2001/REC-SVG-20010904/DTD/svg10.dtd">
<svg version="1.0" xmlns="http://www.w3.org/2000/svg"
 width="500.000000pt" height="500.000000pt" viewBox="0 0 500.000000 500.000000"
 preserveAspectRatio="xMidYMid meet">

<g transform="translate(0.000000,500.000000) scale(0.100000,-0.100000)"
fill="#000000" stroke="none">
<path d="M677 4493 c-4 -3 -7 -746 -7 -1649 l0 -1643 -56 30 c-211 110 -441
-110 -340 -327 40 -85 134 -144 230 -144 43 0 118 29 149 58 19 17 19 15 16
-70 -4 -96 -18 -124 -79 -165 -85 -58 -188 -31 -251 66 -15 23 -16 23 -47 7
l-33 -17 18 -31 c27 -45 96 -103 141 -116 137 -41 278 31 317 162 13 43 15
301 15 1908 l0 1858 1990 0 1990 0 0 -1990 0 -1990 -2027 -2 -2028 -3 -3 -27
c-3 -22 2 -30 23 -38 41 -16 4087 -14 4103 2 17 17 17 4099 0 4116 -9 9 -481
12 -2063 12 -1129 0 -2055 -3 -2058 -7z m-134 -3314 c21 -5 53 -24 72 -40 88
-77 67 -233 -38 -283 -48 -22 -124 -21 -163 3 -47 29 -83 82 -90 134 -11 79
44 163 124 187 38 12 52 11 95 -1z"/>
<path d="M930 1215 l0 -445 35 0 35 0 0 445 0 445 -35 0 -35 0 0 -445z"/>
<path d="M1318 1250 c-109 -33 -189 -157 -174 -267 12 -88 66 -159 151 -199
80 -38 158 -30 238 25 l39 27 38 -39 c32 -31 45 -38 72 -35 29 3 33 7 36 33 3
27 -1 32 -30 40 -22 7 -35 18 -39 35 -4 14 -7 105 -8 203 l-1 177 -35 0 c-33
0 -35 -2 -35 -32 0 -29 -1 -30 -18 -15 -52 47 -161 69 -234 47z m173 -95 c39
-25 79 -95 79 -136 0 -66 -41 -133 -102 -165 -35 -18 -109 -18 -152 0 -102 42
-128 202 -47 280 62 59 152 68 222 21z"/>
<path d="M1862 1240 c-66 -41 -80 -144 -27 -200 15 -16 55 -40 88 -55 78 -35
97 -51 97 -85 0 -63 -89 -85 -148 -35 -26 22 -33 23 -61 14 -37 -13 -38 -18
-9 -54 27 -34 92 -65 138 -65 47 0 114 32 135 64 26 39 29 95 8 136 -14 28
-37 44 -108 81 -86 44 -90 47 -93 82 -3 29 2 39 22 52 29 19 69 14 98 -12 14
-13 20 -13 47 2 27 13 30 19 21 35 -16 29 -83 60 -132 60 -25 0 -57 -8 -76
-20z"/>
<path d="M2262 1240 c-66 -41 -80 -144 -27 -200 15 -16 55 -40 88 -55 78 -35
97 -51 97 -85 0 -63 -89 -85 -148 -35 -26 22 -33 23 -61 14 -37 -13 -38 -18
-9 -54 27 -34 92 -65 138 -65 47 0 114 32 135 64 26 39 29 95 8 136 -14 28
-37 44 -108 81 -86 44 -90 47 -93 82 -3 29 2 39 22 52 29 19 69 14 98 -12 14
-13 20 -13 47 2 27 13 30 19 21 35 -16 29 -83 60 -132 60 -25 0 -57 -8 -76
-20z"/>
</g>
</svg>
